<svg width="800" height="246" viewBox="0 0 800 246" fill="none" xmlns="http://www.w3.org/2000/svg">
<rect x="2.5" y="8.5" width="795" height="195" rx="27.5" fill="#FFAAB9" stroke="#FFAAB9" stroke-width="5"/>
<path d="M500 188.263H746V188.14H500V188.263Z" fill="#ECECEC"/>
<path d="M705.055 196.182H721.351V196.059H705.055V196.182Z" fill="#ECECEC"/>
<path d="M658.684 197.517H662.961V197.394H658.684V197.517Z" fill="#ECECEC"/>
<path d="M695.119 191.613H704.562V191.49H695.119V191.613Z" fill="#ECECEC"/>
<path d="M525.811 192.44H547.062V192.317H525.811V192.44Z" fill="#ECECEC"/>
<path d="M551.445 192.44H554.561V192.317H551.445V192.44Z" fill="#ECECEC"/>
<path d="M564.682 194.518H610.77V194.395H564.682V194.518Z" fill="#ECECEC"/>
<mask id="mask0_204_779" style="mask-type:luminance" maskUnits="userSpaceOnUse" x="500" y="-1" width="246" height="247">
<path d="M500 -7.62939e-05H746V246H500V-7.62939e-05Z" fill="white"/>
</mask>
<g mask="url(#mask0_204_779)">
<path d="M521.605 27.1599C520.124 27.1599 518.92 28.3643 518.92 29.8452V163.389C518.92 164.87 520.124 166.075 521.605 166.075H616.61C618.09 166.075 619.295 164.87 619.295 163.389V29.8452C619.295 28.3643 618.09 27.1599 616.61 27.1599H521.605ZM616.61 166.198H521.605C520.057 166.198 518.797 164.938 518.797 163.389V29.8452C518.797 28.2969 520.057 27.0369 521.605 27.0369H616.61C618.158 27.0369 619.418 28.2969 619.418 29.8452V163.389C619.418 164.938 618.158 166.198 616.61 166.198Z" fill="#ECECEC"/>
<path d="M628.023 27.1594C626.542 27.1594 625.338 28.3638 625.338 29.8447V163.389C625.338 164.87 626.542 166.074 628.023 166.074H723.027C724.508 166.074 725.713 164.87 725.713 163.389V29.8447C725.713 28.3638 724.508 27.1594 723.027 27.1594H628.023ZM723.027 166.197H628.023C626.475 166.197 625.215 164.938 625.215 163.389V29.8447C625.215 28.2964 626.475 27.0364 628.023 27.0364H723.027C724.576 27.0364 725.836 28.2964 725.836 29.8447V163.389C725.836 164.938 724.576 166.197 723.027 166.197Z" fill="#ECECEC"/>
<path d="M702.578 67.8118C702.578 82.0566 691.03 93.6044 676.785 93.6044C662.54 93.6044 650.992 82.0566 650.992 67.8118C650.992 53.5669 662.54 42.0191 676.785 42.0191C691.03 42.0191 702.578 53.5669 702.578 67.8118Z" fill="#E1E1E1"/>
<path d="M700.626 67.8118C700.626 82.0566 689.079 93.6044 674.834 93.6044C660.589 93.6044 649.041 82.0566 649.041 67.8118C649.041 53.5669 660.589 42.0191 674.834 42.0191C689.079 42.0191 700.626 53.5669 700.626 67.8118Z" fill="#F5F5F5"/>
<path d="M698.663 67.8115C698.663 80.975 687.991 91.6465 674.828 91.6465C661.664 91.6465 650.992 80.975 650.992 67.8115C650.992 54.6476 661.664 43.9761 674.828 43.9761C687.991 43.9761 698.663 54.6476 698.663 67.8115Z" fill="white"/>
<path d="M678.892 85.162C678.632 85.162 678.395 84.9844 678.331 84.7202L674.27 67.9479C674.195 67.6379 674.386 67.3255 674.696 67.2502C675.005 67.174 675.318 67.3654 675.394 67.6758L679.454 84.4481C679.529 84.7581 679.338 85.0705 679.028 85.1458C678.983 85.1566 678.937 85.162 678.892 85.162Z" fill="#F5F5F5"/>
<path d="M674.826 68.9672C674.53 68.9672 674.235 68.8545 674.009 68.6287L660.061 54.6805C659.61 54.2293 659.61 53.4977 660.061 53.0465C660.513 52.5949 661.244 52.5949 661.696 53.0465L674.826 66.1775L682.483 58.52C682.935 58.0684 683.667 58.0684 684.118 58.52C684.57 58.9712 684.57 59.7028 684.118 60.154L675.644 68.6287C675.418 68.8545 675.123 68.9672 674.826 68.9672Z" fill="#ECECEC"/>
<path d="M608.975 184.548H612.86V157.932H608.975V184.548Z" fill="#F0F0F0"/>
<path d="M530.357 184.548H610.3V188.14H530.357V184.548Z" fill="#F0F0F0"/>
<path d="M608.978 184.548H527.791V157.932H608.978V184.548Z" fill="#F5F5F5"/>
<path d="M603.723 177.766H533.041V162.564H603.723V177.766Z" fill="#F0F0F0"/>
<path d="M551.188 164.602H585.581C586.222 164.602 586.746 164.078 586.746 163.437V163.218C586.746 162.577 586.222 162.052 585.581 162.052H551.188C550.547 162.052 550.023 162.577 550.023 163.218V163.437C550.023 164.078 550.547 164.602 551.188 164.602Z" fill="#F5F5F5"/>
<path d="M526.008 155.554H608.975V157.932H526.008V155.554Z" fill="#F0F0F0"/>
<path d="M614.727 155.554H608.975V157.932H614.727V155.554Z" fill="#E7E7E7"/>
<path d="M711.404 129.829H703.828V188.14H711.404V129.829Z" fill="#F0F0F0"/>
<path d="M637.512 129.829H703.826V188.14H637.512V129.829Z" fill="#F5F5F5"/>
<path d="M636.91 151.834H695.134V183.021H636.91V151.834Z" fill="#FAFAFA"/>
<path d="M636.91 138.257H695.134V148.525H636.91V138.257Z" fill="#FAFAFA"/>
<mask id="mask1_204_779" style="mask-type:luminance" maskUnits="userSpaceOnUse" x="695" y="151" width="1" height="33">
<path d="M695.141 151.833H695.66V183.02H695.141V151.833Z" fill="white"/>
</mask>
<g mask="url(#mask1_204_779)">
<g opacity="0.699997">
<path d="M695.66 151.833H695.141V183.02H695.66V151.833Z" fill="#E7E7E7"/>
</g>
</g>
<mask id="mask2_204_779" style="mask-type:luminance" maskUnits="userSpaceOnUse" x="695" y="138" width="1" height="11">
<path d="M695.141 138.256H695.66V148.524H695.141V138.256Z" fill="white"/>
</mask>
<g mask="url(#mask2_204_779)">
<g opacity="0.699997">
<path d="M695.66 138.256H695.141V148.524H695.66V138.256Z" fill="#E7E7E7"/>
</g>
</g>
<mask id="mask3_204_779" style="mask-type:luminance" maskUnits="userSpaceOnUse" x="637" y="132" width="75" height="2">
<path d="M637.344 132.289H711.403V133.607H637.344V132.289Z" fill="white"/>
</mask>
<g mask="url(#mask3_204_779)">
<g opacity="0.699997">
<path d="M711.402 132.289H637.344V133.608H711.402V132.289Z" fill="#E7E7E7"/>
</g>
</g>
<path d="M712.289 129.031H703.828V132.844H712.289V129.031Z" fill="#F0F0F0"/>
<path d="M636.631 129.031H703.831V132.844H636.631V129.031Z" fill="#F5F5F5"/>
<path d="M661.837 117.804C661.346 117.113 661.116 116.266 660.953 115.434C660.827 114.593 660.764 113.732 660.823 112.884C660.928 111.185 661.297 109.507 661.894 107.937C662.158 107.134 662.541 106.388 662.88 105.622C663.271 104.884 663.668 104.149 664.108 103.442C664.569 102.748 665.04 102.063 665.543 101.403C666.078 100.764 666.607 100.125 667.195 99.5332C666.911 100.326 666.568 101.072 666.232 101.817C665.894 102.561 665.593 103.319 665.244 104.047L664.293 106.264L663.856 107.38L663.627 107.933L663.432 108.496C662.864 109.983 662.424 111.5 662.096 113.042C661.929 113.814 661.813 114.595 661.751 115.389C661.691 116.182 661.686 116.985 661.837 117.804Z" fill="#E7E7E7"/>
<path d="M652.289 119.107C652.332 117.847 652.255 116.661 651.98 115.57C651.709 114.478 651.226 113.512 650.537 112.697C649.839 111.886 648.946 111.219 647.938 110.649C646.934 110.067 645.821 109.606 644.672 109.068C645.933 108.934 647.216 109.062 648.453 109.47C649.071 109.672 649.675 109.951 650.244 110.308C650.807 110.673 651.334 111.115 651.785 111.638C652.683 112.691 653.197 114.061 653.251 115.395C653.305 116.727 652.983 118.038 652.289 119.107Z" fill="#E7E7E7"/>
<path d="M652.717 118.936C652.666 117.502 652.551 116.133 652.328 114.804C652.103 113.478 651.773 112.196 651.252 111.01C650.741 109.818 650.046 108.726 649.169 107.744C648.289 106.761 647.224 105.912 646.057 105.067C647.48 105.279 648.864 105.88 650.044 106.8C651.219 107.726 652.166 108.975 652.754 110.361C653.358 111.744 653.613 113.244 653.607 114.706C653.587 116.168 653.333 117.625 652.717 118.936Z" fill="#E7E7E7"/>
<path d="M661.185 116.422C660.089 115.047 659.234 113.513 658.48 111.939C657.737 110.358 657.13 108.713 656.654 107.027C656.165 105.346 655.865 103.606 655.704 101.859C655.553 100.111 655.618 98.3348 655.946 96.6148C656.305 98.3388 656.579 100.009 656.977 101.665C657.366 103.317 657.759 104.959 658.23 106.587C658.688 108.217 659.171 109.844 659.675 111.475C660.174 113.109 660.698 114.739 661.185 116.422Z" fill="#E7E7E7"/>
<path d="M660.74 116.299C659.492 115.124 658.453 113.767 657.501 112.361C656.559 110.946 655.735 109.453 655.026 107.903C654.31 106.357 653.756 104.731 653.334 103.076C652.929 101.416 652.708 99.7001 652.767 97.9933C653.387 99.5933 653.924 101.151 654.559 102.683C655.193 104.21 655.825 105.728 656.516 107.227C657.201 108.728 657.901 110.225 658.616 111.728C659.325 113.234 660.052 114.735 660.74 116.299Z" fill="#E7E7E7"/>
<path d="M662.573 117.872C661.173 117.165 659.93 116.215 658.763 115.189C657.605 114.152 656.546 113.002 655.595 111.765C654.634 110.535 653.83 109.179 653.155 107.768C652.49 106.352 652.021 104.833 651.826 103.285C652.671 104.608 653.418 105.902 654.276 107.137C655.127 108.37 655.976 109.592 656.896 110.772C657.805 111.958 658.736 113.131 659.69 114.302C660.64 115.479 661.612 116.641 662.573 117.872Z" fill="#E7E7E7"/>
<path d="M659.892 116.307C658.536 115.782 657.322 114.965 656.211 114.045C655.1 113.119 654.104 112.053 653.241 110.887C652.795 110.314 652.421 109.688 652.041 109.071C651.705 108.425 651.344 107.796 651.091 107.113C650.517 105.781 650.183 104.347 650.064 102.912C650.835 104.147 651.471 105.371 652.235 106.524C652.583 107.116 652.993 107.67 653.356 108.248C653.763 108.798 654.13 109.374 654.554 109.911C655.365 111.01 656.217 112.082 657.113 113.134C658.006 114.193 658.929 115.23 659.892 116.307Z" fill="#E7E7E7"/>
<path d="M661.995 117.151C661.349 116.738 660.888 116.074 660.528 115.388C660.2 114.686 659.934 113.934 659.817 113.166C659.563 111.629 659.627 110.052 659.944 108.562C660.085 107.809 660.318 107.086 660.536 106.36C660.813 105.657 661.065 104.944 661.401 104.271C661.745 103.603 662.091 102.938 662.489 102.304C662.912 101.683 663.329 101.063 663.81 100.484C663.654 101.229 663.434 101.933 663.22 102.636C662.997 103.334 662.83 104.048 662.603 104.732C662.394 105.425 662.231 106.124 662.023 106.808L661.78 107.847C661.698 108.192 661.596 108.534 661.549 108.882C661.252 110.264 661.096 111.652 661.093 113.04C661.086 113.738 661.153 114.429 661.281 115.121C661.411 115.815 661.623 116.498 661.995 117.151Z" fill="#E7E7E7"/>
<path d="M661.078 115.581C659.977 114.47 659.25 113.019 658.797 111.505C658.357 109.983 658.188 108.357 658.368 106.765C658.394 106.365 658.494 105.976 658.556 105.582L658.671 104.995L658.845 104.423C658.97 104.045 659.079 103.662 659.221 103.293C659.384 102.932 659.553 102.574 659.725 102.219L659.987 101.691L660.306 101.195L660.959 100.222C661.443 99.6093 661.975 99.0366 662.528 98.5018C662.272 99.2476 661.932 99.9192 661.658 100.617L661.27 101.666L661.069 102.18L660.915 102.71C660.81 103.061 660.703 103.409 660.589 103.753L660.348 104.811L660.221 105.336L660.146 105.87C660.1 106.225 660.013 106.575 659.995 106.933C659.833 108.358 659.876 109.795 660.051 111.236C660.227 112.683 660.566 114.121 661.078 115.581Z" fill="#E7E7E7"/>
<path d="M659.004 114.981L651.953 108.707L652.998 117.223L659.004 114.981Z" fill="#E7E7E7"/>
<path d="M645.41 113.836H665.864L663.185 129.031H648.089L645.41 113.836Z" fill="#F5F5F5"/>
<path d="M658.195 113.836H665.871L663.193 129.031H659.161L658.195 113.836Z" fill="#ECECEC"/>
<path d="M683.94 117.835C684.038 117.131 684.002 116.463 683.856 115.818C683.715 115.178 683.524 114.563 683.247 113.979C682.709 112.812 682.004 111.722 681.166 110.705C680.982 110.434 680.741 110.2 680.527 109.95C680.308 109.7 680.1 109.442 679.872 109.198C679.397 108.727 678.959 108.215 678.474 107.741C677.981 107.276 677.519 106.767 677.024 106.286C676.532 105.801 676.033 105.318 675.568 104.768C676.234 105.015 676.865 105.329 677.503 105.641C678.133 105.965 678.712 106.372 679.307 106.76C679.608 106.95 679.877 107.184 680.152 107.41C680.43 107.634 680.699 107.869 680.971 108.101C681.481 108.605 681.993 109.113 682.444 109.683C683.362 110.801 684.088 112.13 684.463 113.571C684.654 114.288 684.717 115.048 684.655 115.785C684.584 116.518 684.379 117.261 683.94 117.835Z" fill="#E7E7E7"/>
<path d="M695.44 115.774C694.923 115.353 694.561 114.749 694.332 114.09C694.202 113.76 694.166 113.408 694.114 113.05C694.099 112.872 694.114 112.693 694.117 112.512C694.124 112.331 694.118 112.145 694.168 111.973C694.415 110.532 695.262 109.288 696.252 108.351C696.501 108.113 696.777 107.919 697.039 107.703C697.311 107.5 697.57 107.277 697.865 107.122C698.153 106.955 698.439 106.784 698.731 106.625C698.877 106.547 699.019 106.46 699.168 106.389L699.624 106.198C699.929 106.072 700.234 105.951 700.541 105.836C700.845 105.715 701.154 105.61 701.474 105.536C702.113 105.384 702.746 105.228 703.398 105.146C702.879 105.567 702.341 105.915 701.81 106.267C701.538 106.429 701.28 106.613 701.024 106.797C700.766 106.978 700.508 107.153 700.248 107.324C699.713 107.644 699.255 108.054 698.752 108.396C698.494 108.563 698.278 108.768 698.052 108.963C697.829 109.158 697.583 109.336 697.375 109.542C696.524 110.351 695.811 111.242 695.413 112.28C695.3 112.537 695.263 112.811 695.184 113.087C695.16 113.365 695.099 113.654 695.118 113.948C695.111 114.54 695.225 115.151 695.44 115.774Z" fill="#E7E7E7"/>
<path d="M694.909 115.774C694.013 114.669 693.572 113.207 693.536 111.736C693.496 110.256 693.914 108.763 694.635 107.472L695.227 106.535C695.454 106.248 695.695 105.973 695.934 105.698L696.296 105.289L696.704 104.932C696.976 104.695 697.253 104.465 697.53 104.239C698.115 103.828 698.727 103.462 699.342 103.121C699.996 102.841 700.641 102.561 701.311 102.353C700.822 102.877 700.308 103.329 699.802 103.78C699.331 104.272 698.846 104.733 698.383 105.202C698.169 105.453 697.954 105.701 697.736 105.942L697.408 106.303L697.124 106.694C696.937 106.955 696.732 107.202 696.55 107.463L696.061 108.275C695.45 109.374 695.009 110.55 694.816 111.81C694.617 113.07 694.638 114.396 694.909 115.774Z" fill="#E7E7E7"/>
<path d="M684.566 116.501C684.972 114.978 685.419 113.514 685.846 112.049C686.276 110.587 686.691 109.133 687.077 107.677C687.446 106.217 687.778 104.758 688.062 103.277C688.318 101.793 688.492 100.304 688.627 98.7276C689.173 100.21 689.352 101.816 689.342 103.403C689.29 104.987 689.05 106.561 688.661 108.089C688.255 109.612 687.713 111.092 687.043 112.509C686.359 113.918 685.581 115.287 684.566 116.501Z" fill="#E7E7E7"/>
<path d="M685.076 116.256C685.715 114.756 686.405 113.322 687.083 111.888C687.764 110.458 688.446 109.04 689.104 107.615C689.749 106.185 690.384 104.757 690.97 103.303C691.544 101.843 692.057 100.369 692.551 98.8092C692.741 100.434 692.547 102.087 692.199 103.685C691.821 105.278 691.262 106.818 690.59 108.299C689.907 109.775 689.101 111.187 688.194 112.528C687.274 113.86 686.276 115.144 685.076 116.256Z" fill="#E7E7E7"/>
<path d="M683.072 118.129C684.03 116.809 685.022 115.566 686.004 114.319C686.987 113.077 687.969 111.847 688.928 110.605C689.877 109.356 690.814 108.106 691.71 106.818C692.596 105.523 693.424 104.201 694.254 102.791C694.077 104.417 693.519 105.986 692.822 107.466C692.098 108.934 691.21 110.311 690.224 111.604C689.229 112.89 688.128 114.086 686.944 115.191C685.75 116.284 684.49 117.312 683.072 118.129Z" fill="#E7E7E7"/>
<path d="M686.086 115.986C687.023 114.807 687.967 113.695 688.888 112.57C689.812 111.451 690.712 110.328 691.586 109.191C692.461 108.054 693.273 106.882 694.07 105.687C694.866 104.485 695.552 103.23 696.305 101.916C696.213 103.418 695.808 104.907 695.204 106.295C694.581 107.674 693.808 108.99 692.886 110.183C691.967 111.378 690.935 112.48 689.806 113.466C688.667 114.441 687.453 115.337 686.086 115.986Z" fill="#E7E7E7"/>
<path d="M683.683 117.356C684.264 116.201 684.463 115.022 684.43 113.896C684.386 112.764 684.058 111.672 683.573 110.623L683.407 110.224L683.193 109.84L682.782 109.06C682.453 108.564 682.155 108.043 681.817 107.538C681.456 107.049 681.131 106.522 680.768 106.016C680.403 105.509 680.03 105.003 679.699 104.433C680.272 104.731 680.804 105.092 681.343 105.453C681.867 105.83 682.33 106.283 682.812 106.721C683.057 106.935 683.249 107.203 683.465 107.449C683.678 107.7 683.884 107.956 684.085 108.216L684.612 109.065L684.864 109.497L685.069 109.961C685.632 111.178 685.926 112.599 685.71 113.978C685.488 115.34 684.79 116.646 683.683 117.356Z" fill="#E7E7E7"/>
<path d="M684.599 115.785C685.012 114.504 685.301 113.258 685.426 112.031C685.55 110.805 685.476 109.607 685.165 108.479C685.016 107.913 684.803 107.362 684.528 106.835C684.263 106.303 683.942 105.789 683.574 105.294C682.846 104.295 681.952 103.373 681.004 102.409C682.303 102.789 683.508 103.484 684.533 104.436C685.05 104.907 685.502 105.462 685.88 106.071C686.264 106.676 686.554 107.349 686.744 108.048C687.13 109.448 687.08 110.942 686.683 112.282C686.28 113.62 685.593 114.855 684.599 115.785Z" fill="#E7E7E7"/>
<path d="M686.998 114.621L694.695 107.231L694.386 114.478L686.998 114.621Z" fill="#E7E7E7"/>
<path d="M678.588 113.836H699.041L696.363 129.031H681.266L678.588 113.836Z" fill="#F5F5F5"/>
<path d="M691.367 113.836H699.043L696.364 129.031H692.333L691.367 113.836Z" fill="#ECECEC"/>
<path d="M551.099 44.6346V124.312C551.099 131.215 545.503 136.812 538.6 136.812H596.673C603.576 136.812 609.173 131.215 609.173 124.312V44.6346H551.099Z" fill="#F5F5F5"/>
<path d="M600.052 102.322H562.539V64.809H600.052V102.322Z" fill="#F0F0F0"/>
<path d="M598.899 101.167H561.387V63.6539H598.899V101.167Z" fill="white"/>
<path d="M570.598 116.264H561.057V106.722H570.598V116.264Z" fill="white"/>
<path d="M598.899 116.264H589.357V106.722H598.899V116.264Z" fill="white"/>
<path d="M584.748 116.264H575.207V106.722H584.748V116.264Z" fill="white"/>
<path d="M551.107 44.6346V54.1199H609.181V44.6346H551.107Z" fill="#F0F0F0"/>
<path d="M554.59 41.5887V47.6811C554.59 48.6179 555.349 49.3776 556.286 49.3776C557.224 49.3776 557.983 48.6179 557.983 47.6811V41.5887C557.983 40.6519 557.223 39.8923 556.286 39.8923C555.349 39.8923 554.59 40.6519 554.59 41.5887Z" fill="#E7E7E7"/>
<path d="M602.295 41.5887V47.6811C602.295 48.6179 603.055 49.3776 603.991 49.3776C604.929 49.3776 605.688 48.6179 605.688 47.6811V41.5887C605.688 40.6519 604.929 39.8923 603.991 39.8923C603.055 39.8923 602.295 40.6519 602.295 41.5887Z" fill="#E7E7E7"/>
<path d="M592.754 41.5886V47.681C592.754 48.6178 593.514 49.3774 594.45 49.3774C595.388 49.3774 596.147 48.6178 596.147 47.681V41.5886C596.147 40.6518 595.387 39.8922 594.45 39.8922C593.514 39.8922 592.754 40.6518 592.754 41.5886Z" fill="#E7E7E7"/>
<path d="M583.217 41.5883V47.6808C583.217 48.6175 583.976 49.3772 584.913 49.3772C585.85 49.3772 586.61 48.6175 586.61 47.6808V41.5883C586.61 40.6516 585.85 39.8919 584.913 39.8919C583.976 39.8919 583.217 40.6516 583.217 41.5883Z" fill="#E7E7E7"/>
<path d="M573.674 41.5886V47.681C573.674 48.6178 574.433 49.3774 575.37 49.3774C576.307 49.3774 577.067 48.6178 577.067 47.681V41.5886C577.067 40.6518 576.307 39.8922 575.37 39.8922C574.433 39.8922 573.674 40.6518 573.674 41.5886Z" fill="#E7E7E7"/>
<path d="M564.137 41.5886V47.681C564.137 48.6178 564.896 49.3774 565.833 49.3774C566.77 49.3774 567.53 48.6178 567.53 47.681V41.5886C567.53 40.6518 566.77 39.8922 565.833 39.8922C564.896 39.8922 564.137 40.6518 564.137 41.5886Z" fill="#E7E7E7"/>
<path d="M591.447 131.582C591.447 134.47 593.788 136.812 596.676 136.812H591.447H531.332C528.444 136.812 526.104 134.47 526.104 131.582H591.447Z" fill="#E7E7E7"/>
</g>
<mask id="mask4_204_779" style="mask-type:luminance" maskUnits="userSpaceOnUse" x="500" y="-1" width="246" height="247">
<path d="M500 -7.62939e-05H746V246H500V-7.62939e-05Z" fill="white"/>
</mask>
<g mask="url(#mask4_204_779)">
<path d="M623.331 62.299C659.581 54.0088 688.413 83.6848 691.448 107.697C695.595 140.519 646.957 167.158 610.366 174.681C571.805 182.608 547.461 162.152 549.093 132.016C550.422 107.475 592.26 69.4049 623.331 62.299Z" fill="#FF002E" fill-opacity="0.81"/>
<mask id="mask5_204_779" style="mask-type:luminance" maskUnits="userSpaceOnUse" x="549" y="60" width="143" height="117">
<path d="M549.008 60.8779H691.688V176.396H549.008V60.8779Z" fill="white"/>
</mask>
<g mask="url(#mask5_204_779)">
<g opacity="0.899994">
<path d="M623.323 62.2985C659.574 54.0083 688.405 83.6843 691.44 107.697C695.587 140.518 646.949 167.158 610.358 174.68C571.797 182.608 547.454 162.151 549.085 132.016C550.414 107.475 592.252 69.4045 623.323 62.2985Z" fill="white"/>
</g>
</g>
</g>
<mask id="mask6_204_779" style="mask-type:luminance" maskUnits="userSpaceOnUse" x="500" y="-1" width="246" height="247">
<path d="M500 -7.62939e-05H746V246H500V-7.62939e-05Z" fill="white"/>
</mask>
<g mask="url(#mask6_204_779)">
<path d="M718.396 204.789C718.396 207.866 675.687 210.36 623.003 210.36C570.318 210.36 527.609 207.866 527.609 204.789C527.609 201.712 570.318 199.218 623.003 199.218C675.687 199.218 718.396 201.712 718.396 204.789Z" fill="#F5F5F5"/>
</g>
<mask id="mask7_204_779" style="mask-type:luminance" maskUnits="userSpaceOnUse" x="500" y="-1" width="246" height="247">
<path d="M500 -7.62939e-05H746V246H500V-7.62939e-05Z" fill="white"/>
</mask>
<g mask="url(#mask7_204_779)">
<mask id="mask8_204_779" style="mask-type:luminance" maskUnits="userSpaceOnUse" x="596" y="157" width="73" height="43">
<path d="M596.465 157.798H668.783V199.372H596.465V157.798Z" fill="white"/>
</mask>
<g mask="url(#mask8_204_779)">
<g opacity="0.199997">
<path d="M632.624 157.799C632.624 157.799 596.465 179.146 596.465 199.372H668.783C668.783 179.146 632.624 157.799 632.624 157.799Z" fill="#FF002E" fill-opacity="0.81"/>
</g>
</g>
<mask id="mask9_204_779" style="mask-type:luminance" maskUnits="userSpaceOnUse" x="599" y="183" width="68" height="17">
<path d="M599.254 183.269H666.026V199.371H599.254V183.269Z" fill="white"/>
</mask>
<g mask="url(#mask9_204_779)">
<g opacity="0.199997">
<path d="M632.64 183.269C632.64 183.269 599.254 191.538 599.254 199.372H666.026C666.026 191.538 632.64 183.269 632.64 183.269Z" fill="#FF002E" fill-opacity="0.81"/>
</g>
</g>
<mask id="mask10_204_779" style="mask-type:luminance" maskUnits="userSpaceOnUse" x="637" y="163" width="21" height="37">
<path d="M637.027 163.694H657.011V199.372H637.027V163.694Z" fill="white"/>
</mask>
<g mask="url(#mask10_204_779)">
<g opacity="0.300003">
<path d="M637.027 163.694C643.814 170.367 657.011 185.164 657.011 199.372H647.965C647.965 185.164 640.739 170.367 637.027 163.694Z" fill="white"/>
</g>
</g>
<mask id="mask11_204_779" style="mask-type:luminance" maskUnits="userSpaceOnUse" x="596" y="116" width="73" height="42">
<path d="M596.465 116.225H668.783V157.799H596.465V116.225Z" fill="white"/>
</mask>
<g mask="url(#mask11_204_779)">
<g opacity="0.199997">
<path d="M632.624 157.799C632.624 157.799 596.465 136.452 596.465 116.226H668.783C668.783 136.452 632.624 157.799 632.624 157.799Z" fill="#FF002E" fill-opacity="0.81"/>
</g>
</g>
<mask id="mask12_204_779" style="mask-type:luminance" maskUnits="userSpaceOnUse" x="614" y="138" width="38" height="18">
<path d="M614.172 138.58H651.096V155.849H614.172V138.58Z" fill="white"/>
</mask>
<g mask="url(#mask12_204_779)">
<g opacity="0.199997">
<path d="M632.634 155.849C632.634 155.849 614.172 146.982 614.172 138.58H651.096C651.096 146.982 632.634 155.849 632.634 155.849Z" fill="#FF002E" fill-opacity="0.81"/>
</g>
</g>
<mask id="mask13_204_779" style="mask-type:luminance" maskUnits="userSpaceOnUse" x="608" y="116" width="21" height="36">
<path d="M608.707 116.225H628.691V151.902H608.707V116.225Z" fill="white"/>
</mask>
<g mask="url(#mask13_204_779)">
<g opacity="0.300003">
<path d="M628.691 151.902C621.905 145.229 608.707 130.433 608.707 116.225H617.754C617.754 130.433 624.979 145.229 628.691 151.902Z" fill="white"/>
</g>
</g>
<mask id="mask14_204_779" style="mask-type:luminance" maskUnits="userSpaceOnUse" x="637" y="116" width="21" height="36">
<path d="M637.027 116.226H657.011V151.903H637.027V116.226Z" fill="white"/>
</mask>
<g mask="url(#mask14_204_779)">
<g opacity="0.300003">
<path d="M637.027 151.903C643.814 145.23 656.681 128.723 657.011 116.226H654.598C653.468 131.461 642.398 145.446 637.027 151.903Z" fill="white"/>
</g>
</g>
</g>
<path d="M659.795 109.58H663.895V109.087H659.795V109.58Z" fill="#FF002E" fill-opacity="0.81"/>
<mask id="mask15_204_779" style="mask-type:luminance" maskUnits="userSpaceOnUse" x="500" y="-1" width="246" height="247">
<path d="M500 -7.62939e-05H746V246H500V-7.62939e-05Z" fill="white"/>
</mask>
<g mask="url(#mask15_204_779)">
<path d="M677.802 115.847H677.31C677.31 112.391 674.498 109.579 671.043 109.579H666.719V109.087H671.043C674.77 109.087 677.802 112.119 677.802 115.847Z" fill="#FF002E" fill-opacity="0.81"/>
<path d="M671.047 121.642H594.233C591.462 121.642 589.195 119.375 589.195 116.605V115.847C589.195 113.076 591.462 110.809 594.233 110.809H671.047C673.817 110.809 676.085 113.076 676.085 115.847V116.605C676.085 119.375 673.817 121.642 671.047 121.642Z" fill="#FF002E" fill-opacity="0.81"/>
<path d="M671.047 193.956H594.233C591.462 193.956 589.195 196.222 589.195 198.993V199.751C589.195 202.522 591.462 204.789 594.233 204.789H671.047C673.817 204.789 676.085 202.522 676.085 199.751V198.993C676.085 196.222 673.817 193.956 671.047 193.956Z" fill="#FF002E" fill-opacity="0.81"/>
</g>
<path d="M569.228 149.824L565.893 146.863L571.578 138.127L574.913 141.088L569.228 149.824Z" fill="#FF8C7B"/>
<mask id="mask16_204_779" style="mask-type:luminance" maskUnits="userSpaceOnUse" x="500" y="-1" width="246" height="247">
<path d="M500 -7.62939e-05H746V246H500V-7.62939e-05Z" fill="white"/>
</mask>
<g mask="url(#mask16_204_779)">
<path d="M566.587 144.985L570.83 147.927C570.984 148.035 571.026 148.222 570.931 148.379L568.808 151.88C568.588 152.242 568.033 152.345 567.681 152.092C566.222 151.042 565.659 150.533 563.892 149.108C562.804 148.232 560.213 146.123 558.875 144.733C557.566 143.375 558.949 142.06 559.64 142.53C561.276 143.641 564.128 144.863 565.776 144.766C566.073 144.748 566.362 144.828 566.587 144.985Z" fill="#1A2E35"/>
<mask id="mask17_204_779" style="mask-type:luminance" maskUnits="userSpaceOnUse" x="568" y="138" width="7" height="8">
<path d="M568.85 138.129H574.922V145.173H568.85V138.129Z" fill="white"/>
</mask>
<g mask="url(#mask17_204_779)">
<g opacity="0.199997">
<path d="M574.922 141.091L571.585 138.129L568.85 142.337L572.268 145.173L574.922 141.091Z" fill="black"/>
</g>
</g>
<path d="M608.851 97.4652C608.851 97.4652 586.467 95.9376 583.69 103.524C577.379 120.769 569.166 139.07 569.166 139.07L575.783 143.845C575.783 143.845 589.735 122.52 593.974 108.826C602.584 110.915 618.151 112.704 623.166 106.949C627.444 102.039 624.242 97.4652 624.242 97.4652H608.851Z" fill="#1A2E35"/>
<mask id="mask18_204_779" style="mask-type:luminance" maskUnits="userSpaceOnUse" x="587" y="110" width="4" height="14">
<path d="M587.877 110.875H590.928V123.013H587.877V110.875Z" fill="white"/>
</mask>
<g mask="url(#mask18_204_779)">
<g opacity="0.300003">
<path d="M589.68 110.875C589.159 112.977 588.368 119.012 587.877 123.013C588.961 120.906 589.998 118.771 590.928 116.684L589.68 110.875Z" fill="black"/>
</g>
</g>
<path d="M575.338 146.006L567.852 140.14L569.382 136.855L577.751 143.247L575.338 146.006Z" fill="#FF002E" fill-opacity="0.81"/>
<path d="M565.737 144.981C564.968 144.647 564.485 144.281 564.43 143.984C564.408 143.86 564.459 143.743 564.586 143.626C564.645 143.572 564.703 143.554 564.769 143.57C565.085 143.644 565.492 144.398 565.737 144.981ZM564.79 144.713C565.139 144.956 565.575 145.151 565.89 145.277C565.93 145.293 565.975 145.283 566.005 145.254C566.035 145.224 566.044 145.179 566.03 145.14C565.968 144.972 565.406 143.5 564.819 143.361C564.683 143.329 564.552 143.366 564.441 143.469C564.258 143.637 564.183 143.823 564.22 144.023C564.267 144.275 564.498 144.511 564.79 144.713Z" fill="#FF002E" fill-opacity="0.81"/>
<path d="M566.421 143.376C566.494 143.427 566.538 143.495 566.556 143.585C566.632 143.961 566.231 144.605 565.972 144.957C565.836 144.452 565.877 143.592 566.122 143.362C566.168 143.318 566.239 143.277 566.378 143.35C566.393 143.359 566.408 143.367 566.421 143.376ZM565.875 145.265C565.889 145.274 565.905 145.281 565.922 145.283C565.959 145.288 565.995 145.273 566.019 145.245C566.054 145.202 566.893 144.174 566.766 143.543C566.732 143.372 566.635 143.244 566.478 143.161C566.29 143.061 566.111 143.078 565.975 143.206C565.602 143.558 565.618 144.737 565.839 145.222C565.847 145.239 565.859 145.254 565.875 145.265Z" fill="#FF002E" fill-opacity="0.81"/>
<path d="M598.651 154.986L594.345 155.848L593.549 144.318L597.924 144.457L598.651 154.986Z" fill="#FF8C7B"/>
<path d="M593.758 154.272L598.665 152.199C598.844 152.124 599.031 152.191 599.116 152.36L600.994 156.143C601.188 156.536 600.971 157.076 600.557 157.243C598.836 157.935 597.978 158.179 595.819 159.091C594.491 159.652 590.913 161.278 588.981 161.757C587.091 162.225 586.63 160.31 587.407 159.935C589.245 159.047 592.295 156.349 593.119 154.858C593.267 154.59 593.496 154.383 593.758 154.272Z" fill="#1A2E35"/>
<path d="M593.287 155.009C592.571 155.495 591.986 155.714 591.696 155.597C591.576 155.55 591.502 155.44 591.47 155.265C591.455 155.184 591.472 155.123 591.522 155.074C591.762 154.84 592.644 154.901 593.287 155.009ZM592.531 155.687C592.935 155.516 593.346 155.245 593.629 155.039C593.665 155.014 593.682 154.97 593.672 154.927C593.663 154.884 593.63 154.851 593.587 154.842C593.407 154.804 591.813 154.481 591.368 154.916C591.265 155.016 591.225 155.15 591.253 155.304C591.299 155.557 591.42 155.725 591.614 155.802C591.86 155.901 592.193 155.83 592.531 155.687Z" fill="#FF002E" fill-opacity="0.81"/>
<path d="M592.259 153.533C592.343 153.497 592.427 153.496 592.515 153.53C592.885 153.672 593.225 154.377 593.388 154.797C592.873 154.636 592.146 154.127 592.08 153.787C592.068 153.722 592.072 153.637 592.212 153.556C592.228 153.547 592.243 153.54 592.259 153.533ZM593.603 155.052C593.619 155.045 593.634 155.034 593.645 155.021C593.67 154.992 593.677 154.952 593.665 154.916C593.647 154.86 593.214 153.563 592.595 153.324C592.427 153.26 592.261 153.274 592.103 153.364C591.912 153.474 591.827 153.639 591.864 153.828C591.964 154.347 593.001 154.984 593.546 155.06C593.565 155.062 593.585 155.059 593.603 155.052Z" fill="#FF002E" fill-opacity="0.81"/>
<mask id="mask19_204_779" style="mask-type:luminance" maskUnits="userSpaceOnUse" x="593" y="144" width="6" height="7">
<path d="M593.535 144.319H598.315V150.341H593.535V144.319Z" fill="white"/>
</mask>
<g mask="url(#mask19_204_779)">
<g opacity="0.199997">
<path d="M597.912 144.458L593.535 144.32L593.953 150.341L598.315 150.261L597.912 144.458Z" fill="black"/>
</g>
</g>
<path d="M619.725 97.4647C619.725 97.4647 587.731 100.49 588.896 110.12C590.577 124.01 591.807 148.327 591.807 148.327L599.961 148.647C599.961 148.647 603.018 127.265 601.23 113.042C609.509 113.042 627.495 113.477 630.659 109.2C634.416 104.123 632.676 97.4647 632.676 97.4647H619.725Z" fill="#1A2E35"/>
<path d="M600.87 149.15L591.084 148.665L590.732 144.405L601.464 145.146L600.87 149.15Z" fill="#FF002E" fill-opacity="0.81"/>
<path d="M612.634 69.2694C612.563 70.1496 612.488 70.9334 612.38 71.7555C612.278 72.5678 612.165 73.3771 612.041 74.1865C611.801 75.8066 611.479 77.4179 611.116 79.0361C610.732 80.6499 610.303 82.2695 609.74 83.8936C609.166 85.5167 608.523 87.1541 607.511 88.8171C606.995 89.6466 606.395 90.4943 605.529 91.3184C605.296 91.5403 605.098 91.6953 604.896 91.8537C604.694 92.02 604.49 92.1592 604.287 92.3034C603.88 92.5897 603.471 92.8421 603.06 93.0675C601.42 93.9727 599.793 94.5897 598.164 95.0714C597.352 95.3179 596.538 95.523 595.725 95.7026C594.912 95.8866 594.1 96.0416 593.286 96.169C591.651 96.4318 590.053 96.6054 588.362 96.662C587.432 96.693 586.654 95.9644 586.622 95.0345C586.597 94.2704 587.084 93.6087 587.774 93.3789L587.84 93.3577C590.715 92.4038 593.662 91.3701 596.313 90.1302C597.635 89.5059 598.902 88.8284 599.946 88.0737C600.206 87.8842 600.45 87.6933 600.672 87.5039C600.781 87.408 600.896 87.3145 600.988 87.2176C601.087 87.1211 601.19 87.0223 601.237 86.9647C601.491 86.6764 601.795 86.2139 602.069 85.6811C602.626 84.6031 603.11 83.2737 603.503 81.8981C603.9 80.5175 604.245 79.0755 604.532 77.6078C604.836 76.1432 605.073 74.6485 605.315 73.1513C605.547 71.6669 605.736 70.1098 605.906 68.682L605.915 68.6018C606.135 66.7499 607.814 65.4269 609.666 65.6468C611.472 65.8613 612.775 67.4716 612.634 69.2694Z" fill="#FF002E" fill-opacity="0.81"/>
<path d="M588.469 92.5039L586.004 92.6599L587.973 97.1868C587.973 97.1868 592.23 97.0898 592.142 94.9939L591.374 93.9922C590.714 93.1337 589.642 92.5836 588.469 92.5039Z" fill="#FF8C7B"/>
<path d="M583.314 93.0232L585.441 97.1865H587.973L586.003 92.6601L583.314 93.0232Z" fill="#FF8C7B"/>
<path d="M612.276 62.293L617.035 61.3183L620.82 60.7702C621.362 60.692 621.912 60.6492 622.458 60.6984C625.4 60.9651 627.928 63.0211 628.729 65.9333C629.676 69.3748 630.533 73.6011 631.192 77.3472C632.107 82.5472 632.583 90.3616 632.683 97.4651H610.126C609.654 84.6017 606.899 76.3042 605.969 71.1692C605.391 67.978 607.022 64.7958 609.95 63.401L612.276 62.293Z" fill="#FF002E" fill-opacity="0.81"/>
<path d="M610.121 65.121C610.175 67.2366 610.603 74.7815 612.879 79.0663C613.281 75.0491 618.048 62.818 618.048 62.818L610.121 65.121Z" fill="#F5F5F5"/>
<mask id="mask20_204_779" style="mask-type:luminance" maskUnits="userSpaceOnUse" x="624" y="64" width="9" height="34">
<path d="M624.711 64.1316H632.683V97.4646H624.711V64.1316Z" fill="white"/>
</mask>
<g mask="url(#mask20_204_779)">
<g opacity="0.300003">
<path d="M631.702 80.8748C631.703 80.8753 631.704 80.8758 631.705 80.8763C631.695 80.7966 631.684 80.7199 631.675 80.6402C631.66 80.5191 631.644 80.4015 631.629 80.282C631.605 80.0916 631.58 79.9027 631.555 79.7162C631.531 79.5391 631.507 79.3629 631.482 79.1897C631.458 79.0175 631.432 78.8498 631.407 78.6815C631.387 78.5428 631.366 78.4016 631.344 78.2653C631.296 77.9524 631.245 77.6449 631.193 77.3482C631.031 76.4262 630.856 75.4742 630.671 74.5133C630.666 74.4862 630.661 74.4592 630.656 74.4321C630.471 73.4707 630.276 72.501 630.072 71.5387C630.067 71.5175 630.062 71.4963 630.058 71.4752C629.97 71.0658 629.881 70.6585 629.791 70.254C629.757 70.1015 629.723 69.9505 629.688 69.7989C629.629 69.5372 629.569 69.2769 629.508 69.0186C629.46 68.8135 629.411 68.6093 629.363 68.4066C629.353 68.3653 629.343 68.3225 629.333 68.2811H629.332C629.135 67.4713 628.934 66.6811 628.728 65.9323L625.308 64.1316C625.701 65.644 626.078 67.303 626.432 69.0063C626.006 69.2292 625.643 69.4964 625.31 69.8068C624.494 70.5374 624.52 72.0882 625.337 73.9214C627.663 79.1381 628.811 84.8099 629.059 90.5161C629.16 92.8339 629.224 95.1812 629.254 97.4597L632.683 97.4646C632.601 91.8258 632.286 85.7456 631.702 80.8748Z" fill="black"/>
</g>
</g>
<path d="M615.263 52.8117L613.334 55.7568L610.708 59.7715C610.887 59.865 611.289 60.4952 611.519 60.9597C611.999 61.926 612.395 62.6497 610.366 64.0332C609.931 64.3294 609.916 64.7987 610.014 65.3153C610.134 65.9422 610.502 66.6004 612.692 66.2137C615.23 65.766 616.928 64.4248 618.191 63.1624C618.92 62.4322 618.752 61.8827 618.05 61.1269C616.058 58.9858 615.462 55.5683 615.263 52.8117Z" fill="#FF8C7B"/>
<path d="M610.613 66.2864L612.009 67.1611L614.271 66.2012C613.72 65.7048 613.111 65.2881 612.278 65.1744C611.618 65.3658 611.097 65.7944 610.613 66.2864Z" fill="#1A2E35"/>
<path d="M612.281 65.1747C613.319 65.6032 613.841 66.5675 614.311 67.6819C614.311 67.6819 619.287 63.9092 619.391 61.4256C619.123 60.5823 617.878 60.7294 617.878 60.7294C617.878 60.7294 616.365 63.3538 612.281 65.1747Z" fill="white"/>
<path d="M612.281 65.1742C611.243 65.6028 610.703 66.5257 610.703 67.6416C610.703 67.6416 608.491 65.0429 610.292 63.0813C610.703 62.7861 611.835 62.5017 611.835 62.5017C611.835 62.5017 611.297 63.5811 612.281 65.1742Z" fill="white"/>
<path d="M612.448 66.7533H611.812C611.609 67.11 611.32 71.7229 611.209 74.1766C611.542 75.6614 611.976 77.1123 612.539 78.3561C612.549 78.3704 612.554 78.3896 612.563 78.4043C612.597 78.4811 612.631 78.5583 612.67 78.6306C612.737 78.7802 612.809 78.9248 612.887 79.0646C612.992 78.0137 613.397 76.3891 613.942 74.5721C613.277 71.7279 612.448 66.7533 612.448 66.7533Z" fill="#1A2E35"/>
<mask id="mask21_204_779" style="mask-type:luminance" maskUnits="userSpaceOnUse" x="610" y="55" width="4" height="7">
<path d="M610.705 55.9228H613.471V61.2059H610.705V55.9228Z" fill="white"/>
</mask>
<g mask="url(#mask21_204_779)">
<g opacity="0.199997">
<path d="M611.352 58.7842L612.962 55.9237C612.995 55.9945 613.034 56.0767 613.072 56.1594C613.198 56.4659 613.324 56.8496 613.417 57.255C613.714 58.5264 612.727 60.3404 611.642 61.2063C611.598 61.1241 611.56 61.042 611.516 60.9598C611.313 60.5431 610.968 59.995 610.771 59.8198C610.749 59.7977 610.727 59.7815 610.705 59.7702L611.352 58.7842Z" fill="black"/>
</g>
</g>
<path d="M603.484 52.6361C603.094 50.8856 605.874 48.4738 605.874 48.4738L602.582 47.3235C601.098 48.4005 602.061 51.4474 603.484 52.6361Z" fill="#1A2E35"/>
<path d="M614.579 47.5981C615.354 51.9636 616.027 54.4718 614.411 57.2733C611.981 61.4868 606.258 60.982 604.21 56.9791C602.366 53.3766 601.408 46.8429 605.157 43.976C608.851 41.1509 613.804 43.2326 614.579 47.5981Z" fill="#FF8C7B"/>
<path d="M614.636 52.0154L612.572 51.4496V48.7898C612.572 48.7898 609.958 47.2937 610.365 45.4688C610.545 44.2388 611.205 42.4214 611.205 42.4214C611.205 42.4214 615.347 42.1552 616.604 42.6846C616.386 42.9955 615.538 43.6789 615.538 43.6789C615.538 43.6789 617.17 44.7722 618.049 46.2482C617.425 46.3028 616.632 46.9315 616.632 46.9315C616.632 46.9315 617.179 50.5669 614.636 52.0154Z" fill="#1A2E35"/>
<path d="M609.885 39.5872C611.405 40.5392 610.523 42.2917 610.523 42.2917L614.594 42.3783C614.377 41.0927 610.85 39.5208 609.885 39.5872Z" fill="#1A2E35"/>
<path d="M611.471 46.3643C611.182 47.1849 607.887 48.1861 604.882 48.2845C602.859 48.351 600.493 47.4609 600.493 47.4609C600.493 47.4609 601.025 46.8632 601.984 46.4125C600.167 45.9613 597.868 44.3663 597.236 43.0718C598.878 42.4893 600.118 42.5803 601.328 42.784C599.791 41.4718 599.77 39.7292 599.77 39.7292C599.77 39.7292 607.462 42.781 610.424 41.5156C613.645 40.1395 616.089 42.7205 613.973 44.6905C611.858 46.6605 611.471 46.3643 611.471 46.3643Z" fill="#1A2E35"/>
<path d="M616.931 50.7602C616.978 51.8081 616.583 52.7843 616.05 53.4165C615.249 54.368 614.013 53.6094 613.728 52.4227C613.47 51.3545 613.804 49.7048 614.853 49.1941C615.886 48.6908 616.877 49.5617 616.931 50.7602Z" fill="#FF8C7B"/>
<path d="M607.916 51.637C608.028 51.9785 607.94 52.3214 607.719 52.4021C607.499 52.4833 607.229 52.2717 607.117 51.9303C607.005 51.5883 607.093 51.2459 607.313 51.1652C607.534 51.084 607.803 51.2956 607.916 51.637Z" fill="#1A2E35"/>
<path d="M604.107 53.0362C604.219 53.3776 604.131 53.7206 603.911 53.8013C603.69 53.8824 603.421 53.6709 603.309 53.3294C603.196 52.9875 603.284 52.6451 603.505 52.5644C603.725 52.4832 603.995 52.6947 604.107 53.0362Z" fill="#1A2E35"/>
<path d="M605.411 52.8559C605.411 52.8559 605.437 54.7761 605.057 55.8777C605.741 56.1262 606.495 55.5383 606.495 55.5383L605.411 52.8559Z" fill="#BB221F"/>
<path d="M607.744 56.8511C609.083 56.3881 609.542 55.2949 609.562 55.2447C609.584 55.1906 609.558 55.1291 609.504 55.1074C609.45 55.0848 609.389 55.1109 609.367 55.165C609.362 55.1773 608.84 56.4225 607.296 56.7576C607.239 56.7699 607.203 56.8265 607.215 56.8831C607.228 56.9401 607.284 56.9765 607.341 56.9637C607.484 56.9328 607.618 56.8949 607.744 56.8511Z" fill="#1A2E35"/>
<path d="M608.772 49.6414C608.803 49.6252 608.829 49.601 608.849 49.5696C608.912 49.4716 608.884 49.3408 608.786 49.2783C607.816 48.6544 606.927 49.0657 606.89 49.0835C606.786 49.1209 606.74 49.2591 606.79 49.3649C606.84 49.4702 606.966 49.5145 607.071 49.4648C607.108 49.4475 607.796 49.1435 608.558 49.633C608.625 49.6763 608.707 49.6763 608.772 49.6414Z" fill="#1A2E35"/>
<path d="M603.354 50.9665C603.358 50.932 603.354 50.8961 603.34 50.8621C603.295 50.7544 603.171 50.7032 603.064 50.748C601.998 51.1903 601.83 52.1546 601.824 52.1955C601.795 52.3017 601.882 52.4188 601.998 52.4375C602.113 52.4562 602.221 52.3785 602.24 52.2639C602.247 52.224 602.389 51.485 603.226 51.1377C603.299 51.1072 603.346 51.0403 603.354 50.9665Z" fill="#1A2E35"/>
<path d="M627.674 63.8131C628.217 64.4803 628.69 65.084 629.172 65.7319C629.651 66.3691 630.115 67.0161 630.57 67.6709C631.487 68.9752 632.348 70.3248 633.183 71.7048C633.998 73.1001 634.794 74.5191 635.496 76.0364C636.194 77.5537 636.847 79.1365 637.29 80.948C637.504 81.8592 637.67 82.8408 637.674 83.9615C637.666 85.0675 637.491 86.0402 637.239 86.9583C636.728 88.7821 635.975 90.3526 635.116 91.8001C634.692 92.5268 634.235 93.2195 633.757 93.8881C633.284 94.5597 632.789 95.2062 632.272 95.8296C631.235 97.0881 630.167 98.2394 628.932 99.3631C628.244 99.9894 627.179 99.9392 626.552 99.2509C626.042 98.69 625.981 97.8778 626.349 97.2578L626.393 97.1845C627.884 94.6788 629.358 92.0284 630.394 89.4385C630.909 88.1435 631.322 86.8471 631.492 85.6742C631.573 85.0951 631.608 84.5352 631.56 84.1057C631.521 83.6914 631.407 83.1517 631.223 82.581C630.85 81.4302 630.289 80.1756 629.626 78.9426C628.97 77.7048 628.23 76.4605 627.445 75.2359C626.667 74.003 625.833 72.7897 624.988 71.5794L623.697 69.7791C623.265 69.1932 622.813 68.5708 622.402 68.0345L622.372 67.9951C621.239 66.5137 621.522 64.3947 623.003 63.2616C624.456 62.1507 626.526 62.4055 627.674 63.8131Z" fill="#FF002E" fill-opacity="0.81"/>
<path d="M580.807 100.108L622.665 98.2124C623.215 98.1878 623.685 98.6168 623.709 99.1664L579.853 101.152C579.828 100.602 580.257 100.132 580.807 100.108Z" fill="#FF002E" fill-opacity="0.81"/>
<mask id="mask22_204_779" style="mask-type:luminance" maskUnits="userSpaceOnUse" x="579" y="98" width="45" height="4">
<path d="M579.844 98.2117H623.702V101.152H579.844V98.2117Z" fill="white"/>
</mask>
<g mask="url(#mask22_204_779)">
<g opacity="0.600006">
<path d="M580.799 100.108L622.658 98.2128C623.207 98.1882 623.677 98.6172 623.702 99.1668L579.845 101.152C579.82 100.602 580.249 100.133 580.799 100.108Z" fill="white"/>
</g>
</g>
<path d="M574.142 80.6852L603.923 79.3371C604.287 79.3204 604.674 79.5988 604.788 79.959L610.505 98.102C610.618 98.4616 610.415 98.7667 610.05 98.7834L580.27 100.131C579.906 100.148 579.518 99.8697 579.405 99.5096L573.688 81.3666C573.574 81.0065 573.778 80.7014 574.142 80.6852Z" fill="#FF002E" fill-opacity="0.81"/>
<mask id="mask23_204_779" style="mask-type:luminance" maskUnits="userSpaceOnUse" x="573" y="79" width="38" height="22">
<path d="M573.654 79.3362H610.534V100.133H573.654V79.3362Z" fill="white"/>
</mask>
<g mask="url(#mask23_204_779)">
<g opacity="0.600006">
<path d="M574.14 80.6853L603.921 79.3372C604.285 79.3205 604.672 79.599 604.786 79.9591L610.503 98.1021C610.616 98.4618 610.413 98.7668 610.049 98.7835L580.268 100.132C579.904 100.148 579.516 99.8699 579.403 99.5097L573.686 81.3667C573.572 81.0066 573.776 80.7015 574.14 80.6853Z" fill="white"/>
</g>
</g>
<mask id="mask24_204_779" style="mask-type:luminance" maskUnits="userSpaceOnUse" x="603" y="79" width="8" height="20">
<path d="M603.924 79.3363H610.537V98.7836H603.924V79.3363Z" fill="white"/>
</mask>
<g mask="url(#mask24_204_779)">
<g opacity="0.5">
<path d="M604.789 79.9588L610.506 98.1018C610.619 98.4619 610.416 98.767 610.052 98.7837L603.924 79.3369C604.288 79.3207 604.676 79.5991 604.789 79.9588Z" fill="#FF002E" fill-opacity="0.81"/>
</g>
</g>
<mask id="mask25_204_779" style="mask-type:luminance" maskUnits="userSpaceOnUse" x="610" y="98" width="14" height="2">
<path d="M610.691 98.2125H623.698V99.7559H610.691V98.2125Z" fill="white"/>
</mask>
<g mask="url(#mask25_204_779)">
<g opacity="0.5">
<path d="M611.647 98.7113L622.654 98.2129C623.204 98.1883 623.674 98.6174 623.699 99.1669L610.692 99.7559C610.668 99.2058 611.097 98.7364 611.647 98.7113Z" fill="#FF002E" fill-opacity="0.81"/>
</g>
</g>
<path d="M625.555 97.0601L622.74 97.4724L625.623 101.479C625.623 101.479 630.202 100.746 629.673 98.7157L628.709 97.8999C627.883 97.2003 626.718 96.8899 625.555 97.0601Z" fill="#FF8C7B"/>
<path d="M619.301 98.6698L622.829 101.748L625.627 101.479L622.744 97.4723L619.301 98.6698Z" fill="#FF8C7B"/>
</g>
<path d="M108 112.5C108 114.85 108.9 116.75 111.125 116.75C113.35 116.75 114.25 114.85 114.25 112.5C114.25 110.15 113.35 108.25 111.125 108.25C108.9 108.25 108 110.15 108 112.5ZM104.5 112.5C104.5 108.7 106.85 105.625 111.125 105.625C115.4 105.625 117.75 108.7 117.75 112.5C117.75 116.3 115.4 119.375 111.125 119.375C106.85 119.375 104.5 116.3 104.5 112.5ZM126.508 119V111.75C126.508 109.5 126.058 108.5 124.683 108.5C123.183 108.5 122.383 109.625 122.383 112.25V119H118.883V106H122.258V108.125H122.383C122.383 108.125 123.258 105.625 125.883 105.625C127.983 105.625 129.108 106.625 129.608 108.15L129.633 108.125H129.758C129.758 108.125 130.883 105.625 133.508 105.625C136.758 105.625 137.633 108 137.633 111V119H134.133V111.75C134.133 109.5 133.683 108.5 132.308 108.5C130.808 108.5 130.008 109.625 130.008 112.25V119H126.508ZM150.253 106V119H146.753V114H143.378C139.753 114 138.753 113.125 138.753 110.25V106H142.253V109.875C142.253 111.5 142.753 111.5 144.253 111.5H146.753V106H150.253ZM151.375 112.5C151.375 108.7 153.6 105.625 157.875 105.625C162.15 105.625 164.125 108.7 164.125 112.5C164.125 112.8 164.1 113.25 164.1 113.25H154.9C155.05 115.25 155.9 116.75 158 116.75C160.125 116.75 160.5 114.75 160.5 114.75H164C164 114.75 163.25 119.375 157.875 119.375C153.5 119.375 151.375 116.3 151.375 112.5ZM152.75 103.125C152.75 102.025 153.65 101.125 154.75 101.125C155.85 101.125 156.75 102.025 156.75 103.125C156.75 104.225 155.85 105.125 154.75 105.125C153.65 105.125 152.75 104.225 152.75 103.125ZM158.75 103.125C158.75 102.025 159.65 101.125 160.75 101.125C161.85 101.125 162.75 102.025 162.75 103.125C162.75 104.225 161.85 105.125 160.75 105.125C159.65 105.125 158.75 104.225 158.75 103.125ZM157.875 108.25C156.15 108.25 155.3 109.4 155 111H160.525C160.3 109.4 159.6 108.25 157.875 108.25ZM172.87 119V111.75C172.87 109.5 172.42 108.5 171.045 108.5C169.545 108.5 168.745 109.625 168.745 112.25V119H165.245V106H168.62V108.125H168.745C168.745 108.125 169.62 105.625 172.245 105.625C174.345 105.625 175.47 106.625 175.97 108.15L175.995 108.125H176.12C176.12 108.125 177.245 105.625 179.87 105.625C183.12 105.625 183.995 108 183.995 111V119H180.495V111.75C180.495 109.5 180.045 108.5 178.67 108.5C177.17 108.5 176.37 109.625 176.37 112.25V119H172.87ZM193.615 119V113.875H188.74V119H185.24V106H188.74V111.125H193.615V106H197.115V119H193.615ZM201.75 112.5C201.75 114.85 202.65 116.75 204.875 116.75C207.1 116.75 208 114.85 208 112.5C208 110.15 207.1 108.25 204.875 108.25C202.65 108.25 201.75 110.15 201.75 112.5ZM198.25 112.5C198.25 108.7 200.6 105.625 204.875 105.625C209.15 105.625 211.5 108.7 211.5 112.5C211.5 116.3 209.15 119.375 204.875 119.375C200.6 119.375 198.25 116.3 198.25 112.5ZM212.508 112.5C212.508 108.7 214.758 105.625 219.008 105.625C224.758 105.625 225.133 110.75 225.133 110.75H221.633C221.633 110.75 221.508 108.25 219.008 108.25C216.783 108.25 216.008 110.15 216.008 112.5C216.008 114.85 216.783 116.75 219.008 116.75C221.508 116.75 221.633 114.25 221.633 114.25H225.133C225.133 114.25 224.758 119.375 219.008 119.375C214.758 119.375 212.508 116.3 212.508 112.5ZM233.881 119V111.75C233.881 109.5 233.431 108.5 232.056 108.5C230.556 108.5 229.756 109.625 229.756 112.25V119H226.256V106H229.631V108.125H229.756C229.756 108.125 230.631 105.625 233.256 105.625C235.356 105.625 236.481 106.625 236.981 108.15L237.006 108.125H237.131C237.131 108.125 238.256 105.625 240.881 105.625C244.131 105.625 245.006 108 245.006 111V119H241.506V111.75C241.506 109.5 241.056 108.5 239.681 108.5C238.181 108.5 237.381 109.625 237.381 112.25V119H233.881ZM246.251 119V106H249.751V110.75H251.876C255.501 110.75 257.501 112.375 257.501 114.875C257.501 117.375 255.501 119 251.876 119H246.251ZM251.376 113.25H249.751V116.5H251.376C253.251 116.5 254.001 116 254.001 114.875C254.001 113.75 253.251 113.25 251.376 113.25ZM264.513 108.75V106H276.513V108.75L272.263 112.75C272.263 112.75 277.013 112.875 277.013 118.125C277.013 121 275.013 123.875 270.763 123.875C265.888 123.875 264.138 121 264.138 118H267.638C267.638 119.75 268.513 121.25 270.763 121.25C272.488 121.25 273.513 120 273.513 118.25C273.513 116.375 272.638 115 269.138 115H268.138V113L272.513 108.75H264.513ZM281.517 110H278.017C278.217 106.675 280.892 105.625 283.892 105.625C287.017 105.625 289.517 106.75 289.517 110.125V119H286.017V116.5H285.892C285.892 116.5 285.092 119.375 281.767 119.375C279.392 119.375 277.642 118.275 277.642 115.875C277.642 113.45 279.642 112.35 281.792 111.8C283.967 111.25 286.017 111.075 286.017 109.625C286.017 108.6 285.267 108 283.892 108C282.392 108 281.567 108.6 281.517 110ZM286.017 112.45C285.442 112.975 284.267 113.25 283.267 113.5C282.142 113.775 281.192 114.35 281.192 115.5C281.192 116.5 281.892 117.125 283.017 117.125C285.392 117.125 286.017 114.375 286.017 112.45ZM306.889 119.125V123.5H303.389V119.125C299.114 119.125 296.639 116.375 296.639 112.5C296.639 108.625 299.114 105.875 303.389 105.875V101.5H306.889V105.875C311.164 105.875 313.639 108.625 313.639 112.5C313.639 116.375 311.164 119.125 306.889 119.125ZM303.389 116.625V108.375C301.164 108.375 300.139 110.125 300.139 112.5C300.139 114.875 301.164 116.625 303.389 116.625ZM310.139 112.5C310.139 110.125 309.114 108.375 306.889 108.375V116.625C309.114 116.625 310.139 114.875 310.139 112.5ZM314.632 112.5C314.632 108.7 316.857 105.625 321.132 105.625C325.407 105.625 327.382 108.7 327.382 112.5C327.382 112.8 327.357 113.25 327.357 113.25H318.157C318.307 115.25 319.157 116.75 321.257 116.75C323.382 116.75 323.757 114.75 323.757 114.75H327.257C327.257 114.75 326.507 119.375 321.132 119.375C316.757 119.375 314.632 116.3 314.632 112.5ZM321.132 108.25C319.407 108.25 318.557 109.4 318.257 111H323.782C323.557 109.4 322.857 108.25 321.132 108.25ZM328.502 119V106H334.752C338.127 106 339.877 107.125 339.877 109.5C339.877 111.625 337.877 112.125 337.877 112.125V112.25C337.877 112.25 340.252 112.75 340.252 115.25C340.252 117.75 338.627 119 335.127 119H328.502ZM334.752 113.5H332.002V116.5H335.002C336.127 116.5 336.752 116 336.752 115C336.752 114 336.002 113.5 334.752 113.5ZM332.002 111.25H334.502C335.752 111.25 336.377 110.75 336.377 109.875C336.377 109 335.877 108.5 334.752 108.5H332.002V111.25ZM341.246 123.5V106H344.621V107.75H344.746C344.746 107.75 345.871 105.625 348.746 105.625C352.496 105.625 354.371 108.875 354.371 112.5C354.371 116.125 352.496 119.375 348.746 119.375C345.996 119.375 344.871 117.625 344.871 117.625H344.746V123.5H341.246ZM344.621 112.5C344.621 114.85 345.621 116.75 347.746 116.75C349.871 116.75 350.871 114.85 350.871 112.5C350.871 110.15 349.871 108.25 347.746 108.25C345.621 108.25 344.621 110.15 344.621 112.5ZM359.007 110H355.507C355.707 106.675 358.382 105.625 361.382 105.625C364.507 105.625 367.007 106.75 367.007 110.125V119H363.507V116.5H363.382C363.382 116.5 362.582 119.375 359.257 119.375C356.882 119.375 355.132 118.275 355.132 115.875C355.132 113.45 357.132 112.35 359.282 111.8C361.457 111.25 363.507 111.075 363.507 109.625C363.507 108.6 362.757 108 361.382 108C359.882 108 359.057 108.6 359.007 110ZM363.507 112.45C362.932 112.975 361.757 113.25 360.757 113.5C359.632 113.775 358.682 114.35 358.682 115.5C358.682 116.5 359.382 117.125 360.507 117.125C362.882 117.125 363.507 114.375 363.507 112.45ZM367.873 119L372.548 106H376.498L381.173 119H377.423L374.423 109.775L371.423 119H367.873ZM382.042 119V106H385.542V110.75H387.667C391.292 110.75 393.292 112.375 393.292 114.875C393.292 117.375 391.292 119 387.667 119H382.042ZM387.167 113.25H385.542V116.5H387.167C389.042 116.5 389.792 116 389.792 114.875C389.792 113.75 389.042 113.25 387.167 113.25ZM113 143V137.875H108.125V143H104.625V130H108.125V135.125H113V130H116.5V143H113ZM117.635 136.5C117.635 132.7 119.86 129.625 124.135 129.625C128.41 129.625 130.385 132.7 130.385 136.5C130.385 136.8 130.36 137.25 130.36 137.25H121.16C121.31 139.25 122.16 140.75 124.26 140.75C126.385 140.75 126.76 138.75 126.76 138.75H130.26C130.26 138.75 129.51 143.375 124.135 143.375C119.76 143.375 117.635 140.3 117.635 136.5ZM124.135 132.25C122.41 132.25 121.56 133.4 121.26 135H126.785C126.56 133.4 125.86 132.25 124.135 132.25ZM147.255 130V143H144.005V133.875H143.88L141.005 143H137.755L134.88 133.875H134.755V143H131.505V130H136.755L139.38 139L142.005 130H147.255ZM156.872 143V137.875H151.997V143H148.497V130H151.997V135.125H156.872V130H160.372V143H156.872ZM165.007 136.5C165.007 138.85 165.907 140.75 168.132 140.75C170.357 140.75 171.257 138.85 171.257 136.5C171.257 134.15 170.357 132.25 168.132 132.25C165.907 132.25 165.007 134.15 165.007 136.5ZM161.507 136.5C161.507 132.7 163.857 129.625 168.132 129.625C172.407 129.625 174.757 132.7 174.757 136.5C174.757 140.3 172.407 143.375 168.132 143.375C163.857 143.375 161.507 140.3 161.507 136.5ZM184.268 138.75H187.643C187.643 140.25 186.643 143.375 181.518 143.375C177.768 143.375 175.643 141.75 175.643 139.25C175.643 134.375 183.893 135.625 183.893 133.5C183.893 132.7 183.143 132 181.768 132C179.393 132 179.393 133.75 179.393 133.75H176.018C176.018 132.5 176.893 129.625 181.768 129.625C185.268 129.625 187.393 131.25 187.393 133.5C187.393 138.375 179.143 136.6 179.143 139.375C179.143 140.125 179.643 141 181.518 141C184.268 141 184.268 138.75 184.268 138.75ZM191.887 136.5C191.887 138.85 192.787 140.75 195.012 140.75C197.237 140.75 198.137 138.85 198.137 136.5C198.137 134.15 197.237 132.25 195.012 132.25C192.787 132.25 191.887 134.15 191.887 136.5ZM188.387 136.5C188.387 132.7 190.737 129.625 195.012 129.625C199.287 129.625 201.637 132.7 201.637 136.5C201.637 140.3 199.287 143.375 195.012 143.375C190.737 143.375 188.387 140.3 188.387 136.5ZM208.775 132.75V130H220.775V132.75L216.525 136.75C216.525 136.75 221.275 136.875 221.275 142.125C221.275 145 219.275 147.875 215.025 147.875C210.15 147.875 208.4 145 208.4 142H211.9C211.9 143.75 212.775 145.25 215.025 145.25C216.75 145.25 217.775 144 217.775 142.25C217.775 140.375 216.9 139 213.4 139H212.4V137L216.775 132.75H208.775ZM225.779 134H222.279C222.479 130.675 225.154 129.625 228.154 129.625C231.279 129.625 233.779 130.75 233.779 134.125V143H230.279V140.5H230.154C230.154 140.5 229.354 143.375 226.029 143.375C223.654 143.375 221.904 142.275 221.904 139.875C221.904 137.45 223.904 136.35 226.054 135.8C228.229 135.25 230.279 135.075 230.279 133.625C230.279 132.6 229.529 132 228.154 132C226.654 132 225.829 132.6 225.779 134ZM230.279 136.45C229.704 136.975 228.529 137.25 227.529 137.5C226.404 137.775 225.454 138.35 225.454 139.5C225.454 140.5 226.154 141.125 227.279 141.125C229.654 141.125 230.279 138.375 230.279 136.45ZM248.021 130V141.5C248.021 145.25 246.021 147.875 241.521 147.875C235.521 147.875 235.396 143.375 235.396 143.375H238.896C238.896 143.375 239.021 145.25 241.521 145.25C243.746 145.25 244.521 144 244.521 141.75V141.125H244.396C244.396 141.125 243.271 142.875 240.521 142.875C236.771 142.875 234.896 139.625 234.896 136.25C234.896 132.875 236.771 129.625 240.521 129.625C243.396 129.625 244.521 131.75 244.521 131.75H244.646V130H248.021ZM244.646 136.25C244.646 134.15 243.646 132.25 241.521 132.25C239.396 132.25 238.396 134.15 238.396 136.25C238.396 138.35 239.396 140.25 241.521 140.25C243.646 140.25 244.646 138.35 244.646 136.25ZM249.153 136.5C249.153 132.7 251.378 129.625 255.653 129.625C259.928 129.625 261.903 132.7 261.903 136.5C261.903 136.8 261.878 137.25 261.878 137.25H252.678C252.828 139.25 253.678 140.75 255.778 140.75C257.903 140.75 258.278 138.75 258.278 138.75H261.778C261.778 138.75 261.028 143.375 255.653 143.375C251.278 143.375 249.153 140.3 249.153 136.5ZM255.653 132.25C253.928 132.25 253.078 133.4 252.778 135H258.303C258.078 133.4 257.378 132.25 255.653 132.25ZM263.023 147.5V130H266.398V131.75H266.523C266.523 131.75 267.648 129.625 270.523 129.625C274.273 129.625 276.148 132.875 276.148 136.5C276.148 140.125 274.273 143.375 270.523 143.375C267.773 143.375 266.648 141.625 266.648 141.625H266.523V147.5H263.023ZM266.398 136.5C266.398 138.85 267.398 140.75 269.523 140.75C271.648 140.75 272.648 138.85 272.648 136.5C272.648 134.15 271.648 132.25 269.523 132.25C267.398 132.25 266.398 134.15 266.398 136.5ZM288.036 130V135.175L292.411 130H296.536L291.736 135.15L296.786 143H292.511L289.336 137.725L288.036 139.125V143H284.536V139.125L283.211 137.725L280.061 143H275.786L280.836 135.15L276.036 130H280.161L284.536 135.175V130H288.036ZM309.426 130V143H306.051V140.875H305.926C305.926 140.875 304.801 143.375 301.926 143.375C298.301 143.375 297.301 141 297.301 138V130H300.801V137.25C300.801 139.5 301.426 140.5 303.051 140.5C304.926 140.5 305.926 139.375 305.926 136.75V130H309.426ZM318.305 143V135.75C318.305 133.5 317.855 132.5 316.48 132.5C314.98 132.5 314.18 133.625 314.18 136.25V143H310.68V130H314.055V132.125H314.18C314.18 132.125 315.055 129.625 317.68 129.625C319.78 129.625 320.905 130.625 321.405 132.15L321.43 132.125H321.555C321.555 132.125 322.68 129.625 325.305 129.625C328.555 129.625 329.43 132 329.43 135V143H325.93V135.75C325.93 133.5 325.48 132.5 324.105 132.5C322.605 132.5 321.805 133.625 321.805 136.25V143H318.305ZM330.55 136.5C330.55 132.7 332.8 129.625 337.05 129.625C342.8 129.625 343.175 134.75 343.175 134.75H339.675C339.675 134.75 339.55 132.25 337.05 132.25C334.825 132.25 334.05 134.15 334.05 136.5C334.05 138.85 334.825 140.75 337.05 140.75C339.55 140.75 339.675 138.25 339.675 138.25H343.175C343.175 138.25 342.8 143.375 337.05 143.375C332.8 143.375 330.55 140.3 330.55 136.5ZM355.679 130V143H352.179V138.25H349.679L347.604 143H343.679L346.329 137.625C344.829 136.925 344.054 135.7 344.054 134.125C344.054 131.625 346.054 130 349.679 130H355.679ZM350.179 135.75H352.179V132.5H350.179C348.304 132.5 347.554 133 347.554 134.125C347.554 135.25 348.304 135.75 350.179 135.75Z" fill="#E61C4C"/>
<path d="M104.75 79V63.4H112.25C116.3 63.4 118.4 64.75 118.4 67.6C118.4 70.15 116 70.75 116 70.75V70.9C116 70.9 118.85 71.5 118.85 74.5C118.85 77.5 116.9 79 112.7 79H104.75ZM112.25 72.4H108.95V76H112.55C113.9 76 114.65 75.4 114.65 74.2C114.65 73 113.75 72.4 112.25 72.4ZM108.95 69.7H111.95C113.45 69.7 114.2 69.1 114.2 68.05C114.2 67 113.6 66.4 112.25 66.4H108.95V69.7ZM130.093 79V72.85H124.243V79H120.043V63.4H124.243V69.55H130.093V63.4H134.293V79H130.093ZM150.355 63.4V79H146.305V76.45H146.155C146.155 76.45 144.805 79.45 141.355 79.45C137.005 79.45 135.805 76.6 135.805 73V63.4H140.005V72.1C140.005 74.8 140.755 76 142.705 76C144.955 76 146.155 74.65 146.155 71.5V63.4H150.355ZM170.759 63.4V79H166.859V68.05H166.709L163.259 79H159.359L155.909 68.05H155.759V79H151.859V63.4H158.159L161.309 74.2L164.459 63.4H170.759ZM176.6 68.2H172.4C172.64 64.21 175.85 62.95 179.45 62.95C183.2 62.95 186.2 64.3 186.2 68.35V79H182V76H181.85C181.85 76 180.89 79.45 176.9 79.45C174.05 79.45 171.95 78.13 171.95 75.25C171.95 72.34 174.35 71.02 176.93 70.36C179.54 69.7 182 69.49 182 67.75C182 66.52 181.1 65.8 179.45 65.8C177.65 65.8 176.66 66.52 176.6 68.2ZM182 71.14C181.31 71.77 179.9 72.1 178.7 72.4C177.35 72.73 176.21 73.42 176.21 74.8C176.21 76 177.05 76.75 178.4 76.75C181.25 76.75 182 73.45 182 71.14ZM197.739 79V72.85H191.889V79H187.689V63.4H191.889V69.55H197.739V63.4H201.939V79H197.739ZM218.001 63.4V79H213.951V76.45H213.801C213.801 76.45 212.451 79.45 209.001 79.45C204.651 79.45 203.451 76.6 203.451 73V63.4H207.651V72.1C207.651 74.8 208.401 76 210.351 76C212.601 76 213.801 74.65 213.801 71.5V63.4H218.001ZM219.356 71.2C219.356 66.64 222.026 62.95 227.156 62.95C232.286 62.95 234.656 66.64 234.656 71.2C234.656 71.56 234.626 72.1 234.626 72.1H223.586C223.766 74.5 224.786 76.3 227.306 76.3C229.856 76.3 230.306 73.9 230.306 73.9H234.506C234.506 73.9 233.606 79.45 227.156 79.45C221.906 79.45 219.356 75.76 219.356 71.2ZM227.156 66.1C225.086 66.1 224.066 67.48 223.706 69.4H230.336C230.066 67.48 229.226 66.1 227.156 66.1Z" fill="white"/>
</svg>
